<svg xmlns="http://www.w3.org/2000/svg" viewBox="0 0 512 512" role="img" aria-label="Korte DOS pickleball logo">
  <defs>
    <clipPath id="badgeClip">
      <circle cx="256" cy="256" r="236"/>
    </clipPath>
    <clipPath id="ballClip">
      <circle cx="256" cy="103" r="74"/>
    </clipPath>
    <style>
      .navy{fill:#143d63}
      .red{fill:#c83d26}
      .lime{fill:#c9cf43}
      .grid{stroke:#0b4578;stroke-width:8;fill:none}
      .ring{fill:none;stroke:#c83d26;stroke-width:14}
      .korte{font-family:Impact,"Arial Black",sans-serif;font-size:78px;font-weight:900;letter-spacing:28px}
      .dos{font-family:Impact,"Arial Black",sans-serif;font-size:186px;font-weight:900;letter-spacing:-12px}
    </style>
  </defs>

  <g clip-path="url(#badgeClip)">
    <rect width="512" height="512" fill="#fff"/>

    <g opacity=".98">
      <path class="grid" d="M31 309h450M31 349h450M31 389h450M31 429h450M80 289v190M126 289v190M172 289v190M218 289v190M264 289v190M310 289v190M356 289v190M402 289v190M448 289v190"/>
      <path class="navy" d="M56 264h400v8H56z"/>
      <path class="navy" d="M56 287h400v8H56z"/>
    </g>

    <path class="navy" d="M70 191v-23c0-57 46-103 103-103h166c57 0 103 46 103 103v23h-21v-23c0-45-37-82-82-82H173c-45 0-82 37-82 82v23H70z"/>
    <path d="M88 191v-20c0-47 38-85 85-85h166c47 0 85 38 85 85v20h-11v-20c0-41-33-74-74-74H173c-41 0-74 33-74 74v20H88z" fill="#fff"/>

    <rect x="34" y="194" width="444" height="79" fill="#fff"/>
    <text x="255" y="257" text-anchor="middle" class="red korte">KORTE</text>

    <text x="254" y="442" text-anchor="middle" class="navy dos" stroke="#fff" stroke-width="7" paint-order="stroke">DOS</text>

    <g clip-path="url(#ballClip)">
      <circle cx="256" cy="103" r="74" class="lime"/>
      <ellipse cx="220" cy="55" rx="10" ry="20" fill="#fff" transform="rotate(35 220 55)"/>
      <ellipse cx="252" cy="42" rx="18" ry="8" fill="#fff" transform="rotate(-4 252 42)"/>
      <ellipse cx="292" cy="52" rx="12" ry="21" fill="#fff" transform="rotate(-52 292 52)"/>
      <ellipse cx="196" cy="91" rx="8" ry="18" fill="#fff" transform="rotate(19 196 91)"/>
      <circle cx="240" cy="76" r="15" fill="#fff"/>
      <circle cx="279" cy="100" r="18" fill="#fff"/>
      <ellipse cx="315" cy="112" rx="12" ry="22" fill="#fff" transform="rotate(-11 315 112)"/>
      <circle cx="219" cy="120" r="16" fill="#fff"/>
      <circle cx="240" cy="152" r="18" fill="#fff"/>
      <circle cx="291" cy="148" r="18" fill="#fff"/>
      <ellipse cx="207" cy="162" rx="11" ry="22" fill="#fff" transform="rotate(-33 207 162)"/>
      <ellipse cx="301" cy="185" rx="12" ry="20" fill="#fff" transform="rotate(58 301 185)"/>
      <ellipse cx="263" cy="184" rx="20" ry="10" fill="#fff" transform="rotate(-4 263 184)"/>
      <ellipse cx="226" cy="189" rx="19" ry="9" fill="#fff" transform="rotate(25 226 189)"/>
    </g>
  </g>
  <circle cx="256" cy="256" r="236" class="ring"/>
</svg>
